<svg id="Layer_1" data-name="Layer 1" xmlns="http://www.w3.org/2000/svg" viewBox="0 0 50 50"><defs><style>.cls-1{fill:#00aaeb;}</style></defs><title>twitter</title><path class="cls-1" d="M16.16,45.34h-.63a1.79,1.79,0,0,0-.4,0h-.51c-.81,0-1.63,0-2.44-.15a29.26,29.26,0,0,1-4.36-.87,28.78,28.78,0,0,1-3.93-1.42,30.61,30.61,0,0,1-3.71-2l-.13-.09s-.06,0,0-.1a.09.09,0,0,1,.09,0,1.84,1.84,0,0,1,.41,0l.91.06c.4,0,.79,0,1.19,0a21,21,0,0,0,6.58-1.13c.66-.23,1.3-.5,1.93-.79A21.08,21.08,0,0,0,14,37.24c.31-.21.61-.42.91-.65,0,0,.05,0,.05-.07s-.25,0-.38,0a9.58,9.58,0,0,1-2.06-.37,10.43,10.43,0,0,1-4.73-2.91,10.48,10.48,0,0,1-2-3.13,5.31,5.31,0,0,1-.22-.6c0-.15,0-.21.17-.18a10,10,0,0,0,2,.15,10.69,10.69,0,0,0,2.12-.26.8.8,0,0,1,.15,0h0a10,10,0,0,1-3.21-1.32,11.05,11.05,0,0,1-1.5-1.15,10.16,10.16,0,0,1-2-2.61,10.31,10.31,0,0,1-1.16-3.33A8.33,8.33,0,0,1,2,19.63a4.52,4.52,0,0,1,0-.52c0-.17.08-.21.22-.13a10.09,10.09,0,0,0,3.24,1.09,7,7,0,0,0,1,.1A9.63,9.63,0,0,1,5,19a10.68,10.68,0,0,1-1.78-2.4,10.57,10.57,0,0,1-.89-2.28,10.31,10.31,0,0,1-.29-1.75,7.86,7.86,0,0,1,0-.84,8.84,8.84,0,0,1,.12-1.62A10.15,10.15,0,0,1,3.35,6.62c.07-.12.14-.12.23,0l.9,1.05L4.77,8c.34.33.64.7,1,1,.2.18.38.37.57.55q.87.8,1.8,1.53c.63.5,1.29,1,2,1.42s1.21.77,1.85,1.12c.43.24.87.48,1.31.69a30.7,30.7,0,0,0,3,1.28,29,29,0,0,0,2.89.86,29.42,29.42,0,0,0,3.22.6c.62.07,1.24.14,1.87.17h0c.3.06.25,0,.21-.24a11,11,0,0,1-.19-1.81,10.87,10.87,0,0,1,.33-2.84,10.36,10.36,0,0,1,2-3.88,9.47,9.47,0,0,1,.86-.93,10.59,10.59,0,0,1,2.2-1.62,11.86,11.86,0,0,1,1.63-.72,8.68,8.68,0,0,1,3-.49H35a9.12,9.12,0,0,1,3.81.81A10.22,10.22,0,0,1,41,6.81a7.9,7.9,0,0,1,1,.92.25.25,0,0,0,.28.08,20.13,20.13,0,0,0,4-1.24,19.21,19.21,0,0,0,2.22-1.12c.06,0,.11-.07.17,0s0,.12,0,.17a9,9,0,0,1-.72,1.65,10.28,10.28,0,0,1-1,1.52,10.31,10.31,0,0,1-1.43,1.45,11,11,0,0,1-1.1.8h0a22.67,22.67,0,0,0,3.27-.71,21.51,21.51,0,0,0,2.08-.76l.1,0a.17.17,0,0,1,.1,0l0,0c0,.09,0,.15-.06.21-.26.38-.54.75-.82,1.12a21.89,21.89,0,0,1-2.06,2.25,16,16,0,0,1-1.24,1.08c-.24.2-.49.39-.74.58A.24.24,0,0,0,45,15c0,.56,0,1.13,0,1.69s0,1.16-.09,1.75a28.05,28.05,0,0,1-.39,2.88A29.11,29.11,0,0,1,43.58,25a33.61,33.61,0,0,1-1.22,3.21c-.24.53-.49,1.05-.75,1.57-.45.86-.94,1.7-1.46,2.52s-.9,1.34-1.39,2-.8,1-1.22,1.49-1,1.16-1.62,1.7S34.7,38.59,34,39.12a26.38,26.38,0,0,1-2.49,1.81c-.6.38-1.21.74-1.84,1.08a30.07,30.07,0,0,1-2.82,1.32,28.35,28.35,0,0,1-2.69.91c-.77.22-1.55.41-2.33.56s-1.58.28-2.37.37a17.56,17.56,0,0,1-1.77.13c-.26,0-.53,0-.79,0h-.55A.59.59,0,0,0,16.16,45.34Z"/></svg>