<svg id="Layer_1" data-name="Layer 1" xmlns="http://www.w3.org/2000/svg" viewBox="0 0 50 50"><defs><style>.cls-1{fill:#3c5a98;}</style></defs><title>facebook</title><path class="cls-1" d="M26.71,50H2.86A2.75,2.75,0,0,1,.49,48.8,2.7,2.7,0,0,1,0,47.27V2.84A2.77,2.77,0,0,1,2.74,0H47.19A2.73,2.73,0,0,1,49.9,2.07a3.08,3.08,0,0,1,.1.8V47.18a2.76,2.76,0,0,1-1.88,2.67,2.84,2.84,0,0,1-.87.15H34.5a0,0,0,0,0,0,0s0-.11,0-.16V30.63H41l1-7.54H34.5V23c0-1.62,0-3.24,0-4.86a5.82,5.82,0,0,1,.12-1.25,2.51,2.51,0,0,1,1.05-1.68,3.86,3.86,0,0,1,2-.57c.36,0,.73,0,1.09,0h3.48V7.85l-.31,0-1.15-.1-1.31-.08-1.19,0-1.42,0c-.34,0-.68,0-1,0s-.76,0-1.14.09A10.36,10.36,0,0,0,32.94,8a8.23,8.23,0,0,0-5.26,4.57,9.64,9.64,0,0,0-.83,2.93c-.05.36-.1.72-.13,1.08s0,.78,0,1.17c0,1.71,0,3.42,0,5.14v.16H20.2v7.55h6.51V50Z"/></svg>