<svg id="Layer_1" data-name="Layer 1" xmlns="http://www.w3.org/2000/svg" viewBox="0 0 50 50"><defs><style>.cls-1{fill:#0045ce;}</style></defs><title>google_calendar</title><path class="cls-1" d="M50,11.3a3.62,3.62,0,0,0-2.33-3.87c0-1.18,0-2.36,0-3.54A3.64,3.64,0,0,0,43.73,0H5.94A3.54,3.54,0,0,0,2.45,3a28.7,28.7,0,0,0-.09,4.35,3,3,0,0,1-.29.2,3.64,3.64,0,0,0-2,4.06c.15.95.26,1.91.39,2.86q1,7.18,1.93,14.38-.25,3.62-.5,7.23L1.19,46.24a3.43,3.43,0,0,0,.2,1.62A4.4,4.4,0,0,0,2.25,49a3.43,3.43,0,0,0,2.48,1Q24.86,50,45,50a3.7,3.7,0,0,0,3.26-1.72c.07-.1.11-.25.27-.28a.18.18,0,0,1,.11-.25,3.19,3.19,0,0,0,.17-1.5q-.47-6.87-.92-13.74c-.08-1.23-.19-2.46-.29-3.69a1.43,1.43,0,0,0,.07-.28Q48.82,19.92,50,11.3ZM13.67,1.88a1.67,1.67,0,0,1,1.78,1.64,1.75,1.75,0,1,1-3.5.09A1.65,1.65,0,0,1,13.67,1.88Zm7.88,36.85a7.57,7.57,0,0,1-7.76-.47,5.2,5.2,0,0,1-2.29-4.12c0-.31.05-.43.37-.42.59,0,1.18,0,1.76,0,.29,0,.4.08.44.39a3.47,3.47,0,0,0,3.4,3.33,4,4,0,0,0,3.8-1.23,4.3,4.3,0,0,0,.58-4.4,3.49,3.49,0,0,0-3.1-2.17,10.24,10.24,0,0,0-2.28-.08c-.58,0-.75-.16-.75-.73.1-1.28.1-1.29,1.4-1.28a5.12,5.12,0,0,0,3.44-.9,3.9,3.9,0,0,0,1.05-4.3,3.12,3.12,0,0,0-3.1-2.26,3.79,3.79,0,0,0-3.79,1.73,3,3,0,0,0-.44,1.39c0,.38-.16.6-.61.56a13.88,13.88,0,0,0-1.58,0c-.38,0-.44-.1-.4-.48a5.88,5.88,0,0,1,5.17-5.21,7.7,7.7,0,0,1,4.42.55,5.29,5.29,0,0,1,3.09,5,4.9,4.9,0,0,1-2.77,4.58c-.12.07-.27.08-.33.24.1.19.35.14.47.3l.31.06a9.32,9.32,0,0,1,1.56,1.32A5.84,5.84,0,0,1,21.55,38.73Zm14.74-9.89h0c0,3.42,0,6.85,0,10.27,0,.32-.08.46-.42.45-.61,0-1.22,0-1.82,0-.29,0-.44-.08-.44-.39,0-3.44,0-10.33,0-10.34q0-3.54,0-7.08c0-.43-.21-.37-.49-.27-1.42.48-2.85,1-4.27,1.45-.41.14-.61.14-.57-.39s-.15-1.27.09-1.74,1-.48,1.55-.68c1.89-.7,3.79-1.36,5.69-2,.64-.23.68-.19.68.52v9.52c0,.23,0,.46,0,.7Zm0-23.52a1.74,1.74,0,0,1-1.77-1.78,1.72,1.72,0,0,1,1.82-1.66A1.68,1.68,0,0,1,38,3.58,1.7,1.7,0,0,1,36.29,5.32Z"/></svg>