<svg id="Layer_1" data-name="Layer 1" xmlns="http://www.w3.org/2000/svg" viewBox="0 0 640 1289"><defs><style>.cls-1{fill:#12100b;}</style></defs><title>oneplus3_outline</title><path class="cls-1" d="M5.51,517.35H6.93L8.54,519l.24,703.28.8,10.17,1.06,6.36,1.56,6,2,5.48,2.46,5,2.84,4.45,3.22,4,3.68,3.69,4.2,3.38,4.81,3.06,5.32,2.63,5.78,2.15,6.12,1.68,6.41,1.28,10.05,1.27,17.81,1,11.15.26,23.24.35,193.25,1.38,31.32-.06,103.19-.66,112.83-1.75,10.41-.89,9.89-1.52,6.29-1.48,6-1.92,5.57-2.41,5.08-2.86,4.49-3.24,3.92-3.55,3.43-3.84,3-4.24,2.64-4.7,2.25-5.22,1.79-5.7,1.3-6.17.82-6.53.57-10.34.1-7.22v-711l1.39-1.59,1.55-.22.41-.4V403.39l-.41-.41-1.56-.21-1.38-1.6-.37-328.75-.91-9.6-1.06-6-1.49-5.55-1.93-5.13-2.34-4.7-2.75-4.27-3.19-3.88-3.64-3.53-4.1-3.14-4.55-2.75-5-2.36-5.42-1.94-5.82-1.56-9.41-1.69-13.66-1.31-18.49-.78-19.79-.42-33.44-.52-49.23-.53-74.37-.46-54.29-.12L254,12.41l-72.69.52L74.17,15.05,60.48,16.37l-9.42,1.69-5.83,1.57L39.8,21.58,34.8,24l-4.56,2.77-4.09,3.15L22.52,33.4l-3.18,3.88L16.6,41.56l-2.33,4.69-1.92,5.13-1.49,5.55-1,5.94-.9,9.59-.36,13.8V187.37L6.94,189H5.19v67.85H6.94l1.6,1.61V351.7l-1.61,1.62H5.51l-.32.32V517ZM314.56,1289h0l-238.62-2.47-10.57-.91-10.15-1.56-6.5-1.51-6.22-2L36.61,1278l-5.39-3-4.79-3.45-4.19-3.76-3.66-4.11-3.24-4.52-2.82-5-2.38-5.51-1.9-6-1.37-6.46L6,1229.38l-.59-10.56-.1-7.3,0-690.95H4.84l-1.14-.48-1.27-1.27L2,517.69V353l.46-1.14,1.27-1.27,1.61-.48v-90H3.57L2,258.44V187.39l1.6-1.61H5.31l.38-113.5.93-9.84,1.1-6.2L9.28,50.4l2-5.43,2.48-5,2.95-4.58,3.41-4.17L24,27.42l4.38-3.37,4.86-2.94,5.29-2.5,5.69-2.06,6.07-1.63L60,13.18,74,11.83l14.79-.67,19.6-.46,29-.48,43.93-.52L254,9.18,314.21,9l54.3.11,74.39.47L564,11.83l13.88,1.34,9.7,1.74,6.06,1.62,5.69,2,5.29,2.49L609.5,24l4.38,3.36,3.92,3.79,3.41,4.16,3,4.58,2.49,5,2,5.44,1.57,5.83,1.1,6.21.94,9.87.38,17.65V399.77l.7.1.91.45,1.26,1.25.47,1.15v96.17l-.48,1.15-1.25,1.25-.91.45-.7.1-.25,720.51-.82,10.4-1.09,6.62-1.63,6.24-2.14,5.79-2.6,5.25-3,4.76-3.42,4.29-3.93,4-4.47,3.6-5.1,3.26-5.63,2.8-6.08,2.27-6.37,1.76-6.62,1.32L569.2,1286l-18,1-11.19.26-23.27.35-67.61.66Z"/><rect class="cls-1" x="289.73" y="1244.24" width="58.54" height="2.06"/><path class="cls-1" d="M348.27,1243v-2.06a26.15,26.15,0,0,0,0-52.3v-2.06a28.21,28.21,0,0,1,0,56.42"/><rect class="cls-1" x="289.73" y="1186.54" width="58.54" height="2.06"/><path class="cls-1" d="M289.73,1243a28.21,28.21,0,0,1,0-56.42v2.06a26.15,26.15,0,1,0,0,52.3Z"/><rect class="cls-1" x="289.73" y="1240.9" width="58.54" height="2.06"/><path class="cls-1" d="M348.27,1246.3v-2.06a29.5,29.5,0,1,0,0-59v-2.06a31.56,31.56,0,0,1,0,63.11"/><rect class="cls-1" x="289.73" y="1183.19" width="58.54" height="2.06"/><path class="cls-1" d="M289.73,1246.3a31.56,31.56,0,0,1,0-63.11v2.06a29.5,29.5,0,1,0,0,59Z"/><rect class="cls-1" x="31.74" y="134.42" width="574.61" height="1.88"/><rect class="cls-1" x="30.8" y="135.35" width="1.88" height="1018.94"/><rect class="cls-1" x="31.74" y="1153.35" width="574.61" height="1.89"/><rect class="cls-1" x="605.41" y="135.35" width="1.88" height="1018.94"/><rect class="cls-1" x="277.6" y="69.36" width="82.79" height="1.88"/><path class="cls-1" d="M277.6,71.23a6,6,0,1,1,0-11.91V61.2a4.08,4.08,0,0,0,0,8.16Z"/><rect class="cls-1" x="277.6" y="59.32" width="82.79" height="1.88"/><path class="cls-1" d="M360.4,71.23V69.36a4.08,4.08,0,1,0,0-8.16V59.32a6,6,0,0,1,0,11.91"/><path class="cls-1" d="M360.4,71.23V69.36a4.08,4.08,0,1,0,0-8.16V59.32a6,6,0,0,1,0,11.91"/><path class="cls-1" d="M206.1,71.23a6,6,0,1,1,0-11.91V61.2a4.08,4.08,0,0,0,0,8.16Z"/><rect class="cls-1" x="206.1" y="69.36" width="11.71" height="1.88"/><path class="cls-1" d="M217.81,71.23V69.36a4.08,4.08,0,0,0,0-8.16V59.32a6,6,0,0,1,0,11.91"/><rect class="cls-1" x="206.1" y="59.32" width="11.71" height="1.88"/><path class="cls-1" d="M319,23.9c-28.51,0-80.63.17-133.71.67-15,.14-29.88.3-44,.5s-27.56.41-39.47.67C91.38,26,80.45,26.23,71.4,27c-3.09.25-6,.56-8.7.92l-1,.14a89.46,89.46,0,0,0-12,2.48c-8,2.34-14,5.82-18.62,10.93S23.48,52.74,22,61c-1.61,8.7-1.74,20-1.74,31.76V1205.3c0,11.3.11,21.32,1.5,29.31a42.58,42.58,0,0,0,7.66,18.68,37.35,37.35,0,0,0,13.43,11.17,63.12,63.12,0,0,0,18.63,5.6l.91.14c1.46.22,3,.42,4.53.59,9.87,1.14,21.64,1.42,34.87,1.65,11.6.19,24.43.35,38.38.49s29,.29,45.15.42c61.24.5,106.23.75,133.72.75s72.48-.25,133.72-.75q24.21-.19,45.15-.42c13.94-.14,26.79-.3,38.38-.49,13.24-.23,25-.51,34.87-1.65,1.55-.17,3.07-.37,4.53-.59l.89-.14a63.5,63.5,0,0,0,18.65-5.6,37.51,37.51,0,0,0,13.43-11.17,42.58,42.58,0,0,0,7.66-18.68c1.39-8,1.5-18,1.5-29.31V92.71c0-11.78-.13-23.06-1.73-31.76-1.52-8.22-4.4-14.42-9-19.53s-10.58-8.59-18.62-10.93A87.34,87.34,0,0,0,576.57,28l-1.28-.17c-2.68-.36-5.6-.67-8.69-.92-9.05-.72-20-1-30.39-1.21-11.91-.26-25.32-.48-39.47-.67s-29.05-.36-44-.5c-53.07-.5-105.19-.67-133.7-.67m0,1252.26c-27.5,0-72.5-.26-133.74-.75q-24.21-.2-45.15-.42c-14-.15-26.79-.31-38.4-.5-13.29-.23-25.1-.52-35.06-1.66-1.58-.18-3.11-.38-4.61-.61l-.95-.15a65.44,65.44,0,0,1-19.21-5.78,39.48,39.48,0,0,1-14.14-11.77,44.56,44.56,0,0,1-8-19.56c-1.42-8.15-1.53-18.25-1.53-29.66V92.71c0-11.88.13-23.27,1.78-32.14C21.53,52,24.56,45.45,29.48,40S40.62,31,49,28.53A89.36,89.36,0,0,1,61.14,26l1.3-.17c2.71-.37,5.67-.67,8.8-.93,9.1-.73,20.06-1,30.51-1.22,11.91-.26,25.32-.48,39.48-.67s29.07-.36,44.05-.5c53.08-.49,105.2-.67,133.72-.67s80.64.18,133.73.67c15,.14,29.88.3,44,.5s27.56.41,39.48.67c10.44.22,21.4.49,30.51,1.22,3.12.26,6.08.56,8.8.93l1.13.15A90.22,90.22,0,0,1,589,28.53c8.41,2.45,14.62,6.1,19.56,11.51s8,11.93,9.54,20.53c1.64,8.87,1.77,20.26,1.77,32.14V1205.3c0,11.42-.12,21.54-1.53,29.66a44.56,44.56,0,0,1-8,19.56,39.41,39.41,0,0,1-14.15,11.77,65.64,65.64,0,0,1-19.23,5.78l-.92.15c-1.49.23-3,.43-4.61.61-10,1.14-21.77,1.43-35.06,1.66-11.61.19-24.45.35-38.4.5s-29,.29-45.16.42c-61.24.49-106.23.75-133.73.75"/><path class="cls-1" d="M629.87,328.19l-.15-1a41.39,41.39,0,0,1-.39-4.43V193.35l.08-1.64c.1-1.3.27-2.56.47-3.83l1.09-.29-1-.17.11-.65,2,.19-.16,1c-.24,1.44-.39,2.65-.48,3.87l-.08,1.55,0,1.08V321.6l0,1.08a39.92,39.92,0,0,0,.37,4.2l.15,1Z"/><path class="cls-1" d="M630.06,500.84l-.09-.47-.39-2.44-.15-1.17c-.09-.91-.15-1.8-.18-2.69l0-1.29V407.61c0-.91.1-1.81.19-2.71l.14-1.18.16-1,.13-.85.11-.6.08-.46,2,.11,0,.32-.07.36-.11.65-.13.78-.15,1-.13,1.12c-.1.87-.15,1.73-.18,2.58l0,1.13v84l0,1.21c0,.86.09,1.71.17,2.56l.14,1.1L632,500l0,.28.05.41h-1Z"/><polygon class="cls-1" points="629.81 340.58 629.85 342.31 629.94 343.76 630.05 345.01 631.07 344.97 632.1 344.97 631.98 343.56 631.9 342.19 631.86 340.58 629.81 340.58"/><path class="cls-1" d="M445.48,1287.73l-.05-2,.94-.06,1.28-.14,3.3-.45q2-.27,4.05-.45,2.24-.18,4.47-.21c1.58,0,3,0,4.48.14s2.72.22,4.07.38l3.3.39,1.28.13.93,0v2l-1.06,0-1.37-.15-3.32-.38c-1.31-.16-2.64-.29-4-.38s-2.82-.13-4.33-.13-2.87.08-4.31.2-2.65.27-4,.45l-3.3.45-1.34.14Z"/><polygon class="cls-1" points="6.93 175.27 6.02 175.38 6.47 177.39 6.66 178.4 6.81 179.54 6.95 180.84 7.03 182.2 8.91 182.13 8.82 180.68 8.68 179.32 8.52 178.1 8.32 177.04 8.15 176.18 7.23 176.38 8.08 175.87 7.84 174.99 6.93 174.31 6.93 175.27"/><polygon class="cls-1" points="630.04 336.19 629.94 337.44 629.85 338.89 629.81 340.58 631.86 340.58 631.9 338.96 631.98 337.6 632.1 336.19 630.04 336.19"/><polygon class="cls-1" points="6.93 350.9 6.02 351 6.3 352.18 6.46 352.97 6.63 353.96 6.78 355.09 6.91 356.34 6.99 357.67 7 358.81 7 511.85 6.99 512.99 6.91 514.32 6.78 515.59 6.62 516.72 6.46 517.7 6.3 518.5 6.04 519.53 6.93 519.79 6.93 520.73 7.86 520.02 7.98 519.57 8.07 519.22 8.13 518.89 8.31 518.03 8.49 517 8.66 515.81 8.78 514.48 8.87 513.06 8.89 511.85 8.89 358.81 8.87 357.6 8.78 356.19 8.66 354.86 8.49 353.66 8.31 352.63 8.13 351.77 7.22 351.97 8.07 351.46 8 351.18 7.87 350.67 6.93 349.93 6.93 350.9"/><polygon class="cls-1" points="6.95 265 6.82 266.27 6.66 267.43 6.48 268.43 6.31 269.25 7.23 269.45 6.24 269.58 6.05 270.27 6.93 270.59 6.93 271.52 7.83 270.88 8.07 269.98 7.15 269.79 8.15 269.65 8.33 268.79 8.51 267.73 8.68 266.5 8.83 265.15 8.91 263.71 7.03 263.64 6.95 265"/><path class="cls-1" d="M494.62,1212.44a2.32,2.32,0,1,0,2.32,2.31,2.31,2.31,0,0,0-2.32-2.31m0,6.68a4.37,4.37,0,1,1,4.37-4.37,4.37,4.37,0,0,1-4.37,4.37"/><path class="cls-1" d="M85.68,62a3.25,3.25,0,1,0,3.24,3.25A3.26,3.26,0,0,0,85.68,62m0,8.37a5.13,5.13,0,1,1,5.12-5.12,5.12,5.12,0,0,1-5.12,5.12"/><path class="cls-1" d="M149.23,53a12.24,12.24,0,1,0,12.24,12.24A12.25,12.25,0,0,0,149.23,53m0,26.35a14.12,14.12,0,1,1,14.11-14.11,14.13,14.13,0,0,1-14.11,14.11"/><path class="cls-1" d="M143.38,1212.44a2.32,2.32,0,1,0,2.32,2.31,2.31,2.31,0,0,0-2.32-2.31m0,6.68a4.37,4.37,0,1,1,4.37-4.37,4.37,4.37,0,0,1-4.37,4.37"/><path class="cls-1" d="M319,18.63q-22.19,0-44.38.09T230.24,19l-22.19.16q-11.1.08-22.19.18t-22.19.24l-22.19.27q-11.1.15-22.18.33c-7.39.13-14.79.26-22.18.44-3.7.08-7.39.19-11.08.31s-7.37.31-11.06.54c-4.19.27-7.69.57-11,1a109.73,109.73,0,0,0-10.84,1.77,65.08,65.08,0,0,0-10.45,3.17,45.76,45.76,0,0,0-9.53,5.17A39,39,0,0,0,29,35.94a37.23,37.23,0,0,0-3.62,4,41.11,41.11,0,0,0-5.43,9.35,53,53,0,0,0-3.1,10.43A88.4,88.4,0,0,0,15.46,70.6c-.25,3.31-.39,6.82-.45,11-.07,3.7-.07,7.39-.07,11.08V1205.3c0,3.68,0,7.38.07,11,.08,4.33.24,7.82.5,11a78.86,78.86,0,0,0,1.56,10.81,51.75,51.75,0,0,0,3.41,10.31,43.76,43.76,0,0,0,5.64,9.22,41.82,41.82,0,0,0,7.79,7.47,47,47,0,0,0,9.41,5.34,62.18,62.18,0,0,0,10.37,3.37,99.38,99.38,0,0,0,10.79,1.93c3.33.43,6.92.76,11,1,3.67.24,7.35.4,11,.52s7.37.2,11,.28l10.81.17,11.34.15c7.38.09,14.76.19,22.14.26s14.77.15,22.15.21l22.6.21,21.7.17,22.15.15q22.14.15,44.29.27,44.31.26,88.59,0,22.15-.11,44.3-.27,11-.06,22.07-.15l21.87-.17h.36l22.15-.2q11.07-.09,22.15-.21c7.38-.07,14.76-.17,22.14-.26l11.08-.15,11.07-.17c3.68-.08,7.37-.16,11-.28s7.36-.28,11-.52c4.05-.27,7.63-.6,11-1a99.83,99.83,0,0,0,10.79-1.93,62.79,62.79,0,0,0,10.37-3.37,47.35,47.35,0,0,0,9.41-5.34,41.53,41.53,0,0,0,7.79-7.47,44.08,44.08,0,0,0,5.64-9.22,51.53,51.53,0,0,0,3.41-10.31,77.5,77.5,0,0,0,1.56-10.81c.26-3.19.42-6.68.49-11,.07-3.67.07-7.37.07-11V92.7c0-3.69,0-7.38,0-11.08-.08-4.34-.22-7.84-.45-11a89.62,89.62,0,0,0-1.38-10.88,52.32,52.32,0,0,0-3.11-10.43,40.62,40.62,0,0,0-5.42-9.35,37.53,37.53,0,0,0-7.8-7.44,46,46,0,0,0-9.53-5.17,65.4,65.4,0,0,0-10.45-3.17c-3.22-.71-6.77-1.29-10.85-1.77-3.3-.4-6.79-.7-11-1-3.69-.23-7.37-.4-11.06-.54s-7.38-.23-11.07-.31c-7.4-.18-14.79-.31-22.19-.44l-22.18-.33-22.19-.27-22.19-.24q-11.06-.09-22.1-.18L407.76,19q-22.18-.15-44.38-.23T319,18.63m0,1262.8q-22.15,0-44.31-.14l-44.3-.27-22.07-.16-21.78-.17h-.44l-22.16-.2-22.15-.21c-7.38-.07-14.77-.17-22.15-.26l-11.34-.16-10.81-.16c-3.7-.08-7.39-.16-11.09-.29s-7.4-.29-11.09-.53c-4.09-.26-7.72-.6-11.09-1a101.73,101.73,0,0,1-11-2,66.39,66.39,0,0,1-10.69-3.48,49.12,49.12,0,0,1-9.82-5.59,43.66,43.66,0,0,1-8.17-7.83,46.06,46.06,0,0,1-5.9-9.65,53.51,53.51,0,0,1-3.55-10.72,79.21,79.21,0,0,1-1.6-11.09c-.27-3.23-.43-6.77-.5-11.13-.07-3.69-.08-7.39-.08-11.09V92.7c0-3.7,0-7.41.07-11.11.06-4.24.21-7.79.45-11.14a93.25,93.25,0,0,1,1.4-11.14A55.6,55.6,0,0,1,18,48.49a42.9,42.9,0,0,1,5.71-9.81,36.47,36.47,0,0,1,3.83-4.22A39.81,39.81,0,0,1,32,30.83a48.23,48.23,0,0,1,10-5.4,67.35,67.35,0,0,1,10.77-3.27c3.29-.72,6.9-1.32,11.05-1.81,3.35-.39,6.88-.71,11.11-1,3.7-.23,7.41-.4,11.12-.53s7.4-.23,11.1-.32c7.4-.18,14.8-.31,22.19-.44s14.79-.23,22.19-.33,14.8-.19,22.2-.27,14.79-.16,22.19-.23L208,17.06l22.19-.16q22.2-.13,44.39-.22,44.38-.18,88.78,0,22.19.08,44.38.22l22.2.16,22.19.19q11.08.11,22.19.23t22.19.27l22.2.33c7.4.13,14.79.26,22.19.44,3.7.09,7.4.19,11.11.32s7.4.3,11.11.53c4.23.27,7.76.59,11.1,1,4.15.49,7.77,1.09,11,1.81a67.16,67.16,0,0,1,10.78,3.27,48.49,48.49,0,0,1,10,5.4,41.74,41.74,0,0,1,4.38,3.63,37.13,37.13,0,0,1,3.83,4.22,43.36,43.36,0,0,1,5.7,9.81,56.23,56.23,0,0,1,3.23,10.82,90,90,0,0,1,1.41,11.14c.23,3.22.38,6.76.46,11.14.05,3.71.05,7.41.05,11.11V1205.3c0,3.7,0,7.4-.07,11.09-.07,4.37-.23,7.91-.5,11.13a79.37,79.37,0,0,1-1.6,11.09,53.51,53.51,0,0,1-3.55,10.72,46.13,46.13,0,0,1-5.9,9.65,43.44,43.44,0,0,1-8.18,7.83,48.71,48.71,0,0,1-9.82,5.59,66.06,66.06,0,0,1-10.69,3.48,102,102,0,0,1-11,2c-3.37.44-7,.77-11.09,1-3.69.24-7.39.4-11.09.53s-7.4.21-11.09.29l-10.89.16-11.26.16c-7.39.09-14.77.19-22.15.26l-22.16.21-22.51.2-21.78.17-22.16.16q-22.16.15-44.3.27t-44.3.14"/><rect class="cls-1" x="7.05" y="183.36" width="1.88" height="79.12"/></svg>