<svg id="Layer_1" data-name="Layer 1" xmlns="http://www.w3.org/2000/svg" viewBox="0 0 50 50"><defs><style>.cls-1{fill:#075e54;fill-rule:evenodd;}</style></defs><title>whatsapp</title><g id="WA_Logo" data-name="WA Logo"><path class="cls-1" d="M42.63,7.27A24.77,24.77,0,0,0,.33,24.77a24.84,24.84,0,0,0,3.3,12.39L.12,50l13.13-3.45a24.7,24.7,0,0,0,11.84,3h0A24.78,24.78,0,0,0,42.63,7.27ZM25.1,45.39h0a20.75,20.75,0,0,1-10.49-2.87l-.75-.45-7.79,2,2.08-7.6-.49-.77A20.59,20.59,0,1,1,25.1,45.39ZM36.4,30c-.62-.31-3.66-1.8-4.23-2s-1-.31-1.39.31-1.6,2-2,2.43-.73.46-1.34.15a16.78,16.78,0,0,1-5-3.07,18.68,18.68,0,0,1-3.45-4.29.9.9,0,0,1,.27-1.26c.28-.28.62-.73.93-1.09a4,4,0,0,0,.62-1A1.13,1.13,0,0,0,20.82,19c-.15-.31-1.39-3.35-1.91-4.59s-1-1.05-1.39-1.07l-1.19,0a2.29,2.29,0,0,0-1.65.78,6.93,6.93,0,0,0-2.17,5.16c0,3.05,2.22,6,2.53,6.41S19.41,32.34,25.62,35a36.77,36.77,0,0,0,3.53,1.31,8.48,8.48,0,0,0,3.9.24c1.19-.17,3.66-1.49,4.18-2.94a5.26,5.26,0,0,0,.36-2.94C37.43,30.43,37,30.27,36.4,30Z"/></g></svg>