<svg id="Layer_1" data-name="Layer 1" xmlns="http://www.w3.org/2000/svg" viewBox="0 0 99.21 99.21"><title>CR_Aiden_Logo_Phone_Dock_Inverted</title><path d="M48,39.74H46.81V59.51H48c.75,0,.85-.44.85-.81V40.51C48.84,40.3,48.84,39.74,48,39.74Z"/><path d="M89.75,0H9.47A9.48,9.48,0,0,0,0,9.47V89.75a9.47,9.47,0,0,0,9.47,9.46H89.75a9.47,9.47,0,0,0,9.46-9.46V9.47A9.47,9.47,0,0,0,89.75,0Zm-73,63.34L14.85,49.15,13,63.34H8.84L13,35.87h2a1.91,1.91,0,0,1,2,1.92l3.9,25.55Zm16.12,0h-2.5a1.27,1.27,0,0,1-1.36-1V35.87h2.2a1.61,1.61,0,0,1,1.67,1.64Zm19.84-3.89a3.92,3.92,0,0,1-3.93,3.89h-5.8V35.87h5.8a3.92,3.92,0,0,1,3.93,3.88ZM72,61.19c-.22.5-.42,1-.5,1.11a2.09,2.09,0,0,1-2,1H63V37.21a1.42,1.42,0,0,1,1.41-1.34h7.94L71,38.65a2,2,0,0,1-2,1.09H66.89l0,7.29h4.37l-.37.82c-.14.31-.3.7-.45,1.06l-.42,1a2.06,2.06,0,0,1-2,1H66.89l0,8.61h5.94Zm18.24,2.15H88.45a2.32,2.32,0,0,1-2.36-2.13l-1.75-7.84v10H80.47V35.87h1.82a2.16,2.16,0,0,1,2.49,1.94l1.63,8V35.87h3.87Z"/></svg>