<svg id="Layer_1" data-name="Layer 1" xmlns="http://www.w3.org/2000/svg" viewBox="0 0 99.21 99.21"><defs><style>.cls-1{stroke:#000;stroke-miterlimit:10;}</style></defs><title>CR_Aiden_Logo_1</title><path class="cls-1" d="M24.4,60.88H21.85l-2-15.52-2,15.52H15.25l3.42-22.54h1.25c1,0,1.13.61,1.23,1.22Z"/><path class="cls-1" d="M33.8,38.34a.88.88,0,0,1,.93.9V60.88H33.09c-.55,0-.64-.33-.68-.49v-22Z"/><path class="cls-1" d="M48.87,38.34a2.86,2.86,0,0,1,2.86,2.83V58a2.87,2.87,0,0,1-2.86,2.84H44.39V38.34Zm.58,3.47a1.1,1.1,0,0,0-1.23-1.15H46.71V58.59h1.51a1.11,1.11,0,0,0,1.23-1.19Z"/><path class="cls-1" d="M68.7,58.59c-.26.58-.65,1.48-.74,1.67a1.32,1.32,0,0,1-1.26.62H61.55V39a.7.7,0,0,1,.71-.64h6L67.51,40a1.25,1.25,0,0,1-1.23.65H64.42a.52.52,0,0,0-.55.54v6.7h3.48c-.26.58-.65,1.51-.75,1.71a1.25,1.25,0,0,1-1.22.61h-1a.57.57,0,0,0-.55.55v7.82Z"/><path class="cls-1" d="M84,60.88H82.9a1.51,1.51,0,0,1-1.55-1.45L78.87,48.29V60.88H76.55V38.34h1.07c1.28,0,1.51.61,1.64,1.25l2.38,11.72v-13H84Z"/><path class="cls-1" d="M89.27,98.12H9.94a8.86,8.86,0,0,1-8.85-8.85V9.94A8.86,8.86,0,0,1,9.94,1.09H89.27a8.86,8.86,0,0,1,8.85,8.85V89.27A8.86,8.86,0,0,1,89.27,98.12ZM9.94,3.34a6.61,6.61,0,0,0-6.6,6.6V89.27a6.61,6.61,0,0,0,6.6,6.6H89.27a6.61,6.61,0,0,0,6.6-6.6V9.94a6.61,6.61,0,0,0-6.6-6.6Z"/></svg>