<svg id="Layer_1" data-name="Layer 1" xmlns="http://www.w3.org/2000/svg" viewBox="0 0 640 1289"><defs><style>.cls-1{fill:none;stroke:#231f20;stroke-miterlimit:10;stroke-width:2px;}</style></defs><title>samsung_galaxy_s4_putline</title><path class="cls-1" d="M242.29,1207.61A18.78,18.78,0,0,0,261,1226.42s31.65.07,60.94.07c27.27,0,52.32-.07,52.32-.07a18.78,18.78,0,0,0,18.75-18.81v-7c0-10.39-7.61-17.91-18-17.91l-116.4-.12c-10.35,0-16.4,7.64-16.4,18Z"/><path class="cls-1" d="M237.57,1207.75c0,12.42,8.92,22.49,19.92,22.49,0,0,32.29.94,63.42.94,29,0,56.94-.94,56.94-.94,11,0,19.92-10.07,19.92-22.49v-8.43c0-12.42-7.85-21.53-18.85-21.53l-123.92,0c-11,0-17.43,9.13-17.43,21.55Z"/><path class="cls-1" d="M260.31,59.42A2.36,2.36,0,1,0,258,61.78,2.36,2.36,0,0,0,260.31,59.42Z"/><path class="cls-1" d="M268.16,59.42a2.36,2.36,0,1,0-2.36,2.36A2.35,2.35,0,0,0,268.16,59.42Z"/><path class="cls-1" d="M276,59.42a2.36,2.36,0,1,0-2.35,2.36A2.35,2.35,0,0,0,276,59.42Z"/><path class="cls-1" d="M283.87,59.42a2.36,2.36,0,1,0-2.36,2.36A2.36,2.36,0,0,0,283.87,59.42Z"/><path class="cls-1" d="M291.72,59.42a2.36,2.36,0,1,0-2.35,2.36A2.35,2.35,0,0,0,291.72,59.42Z"/><path class="cls-1" d="M299.58,59.42a2.36,2.36,0,1,0-2.36,2.36A2.36,2.36,0,0,0,299.58,59.42Z"/><path class="cls-1" d="M307.43,59.42a2.36,2.36,0,1,0-2.35,2.36A2.35,2.35,0,0,0,307.43,59.42Z"/><path class="cls-1" d="M315.29,59.42a2.36,2.36,0,1,0-2.36,2.36A2.36,2.36,0,0,0,315.29,59.42Z"/><path class="cls-1" d="M323.14,59.42a2.36,2.36,0,1,0-2.35,2.36A2.35,2.35,0,0,0,323.14,59.42Z"/><path class="cls-1" d="M331,59.42a2.36,2.36,0,1,0-2.36,2.36A2.36,2.36,0,0,0,331,59.42Z"/><path class="cls-1" d="M338.85,59.42a2.36,2.36,0,1,0-2.36,2.36A2.35,2.35,0,0,0,338.85,59.42Z"/><path class="cls-1" d="M346.71,59.42a2.36,2.36,0,1,0-2.36,2.36A2.36,2.36,0,0,0,346.71,59.42Z"/><path class="cls-1" d="M354.56,59.42a2.36,2.36,0,1,0-2.36,2.36A2.36,2.36,0,0,0,354.56,59.42Z"/><path class="cls-1" d="M362.41,59.42a2.36,2.36,0,1,0-2.35,2.36A2.35,2.35,0,0,0,362.41,59.42Z"/><path class="cls-1" d="M370.27,59.42a2.36,2.36,0,1,0-2.36,2.36A2.36,2.36,0,0,0,370.27,59.42Z"/><path class="cls-1" d="M378.12,59.42a2.36,2.36,0,1,0-2.35,2.36A2.35,2.35,0,0,0,378.12,59.42Z"/><path class="cls-1" d="M386,59.42a2.36,2.36,0,1,0-2.36,2.36A2.36,2.36,0,0,0,386,59.42Z"/><path class="cls-1" d="M393.83,58.63A7.85,7.85,0,0,0,386,50.77H254.81A7.86,7.86,0,0,0,247,58.63v.79a7.86,7.86,0,0,0,7.86,7.86H386a7.85,7.85,0,0,0,7.85-7.86Z"/><path class="cls-1" d="M211.6,53.13a4.72,4.72,0,1,0,4.72-4.72A4.72,4.72,0,0,0,211.6,53.13Z"/><path class="cls-1" d="M204.54,53.13a11.78,11.78,0,1,0,11.78-11.79A11.78,11.78,0,0,0,204.54,53.13Z"/><path class="cls-1" d="M409.15,54.7A5.89,5.89,0,1,0,415,48.81,5.9,5.9,0,0,0,409.15,54.7Z"/><path class="cls-1" d="M403.26,54.71A11.78,11.78,0,1,0,415,42.91,11.78,11.78,0,0,0,403.26,54.71Z"/><path class="cls-1" d="M440.57,54.7a5.89,5.89,0,1,0,5.89-5.89A5.89,5.89,0,0,0,440.57,54.7Z"/><ellipse class="cls-1" cx="446.45" cy="54.71" rx="11.78" ry="11.79"/><path class="cls-1" d="M518.71,64.93a4.72,4.72,0,1,0,4.72-4.72A4.73,4.73,0,0,0,518.71,64.93Z"/><path class="cls-1" d="M511.65,64.93a11.78,11.78,0,1,0,11.78-11.79A11.78,11.78,0,0,0,511.65,64.93Z"/><path class="cls-1" d="M12.89,1124.19c1.83,76.91,23.71,113.86,99,127.39,17.7,3.19,152.42,5.7,181.43,6.2v.09h55v-.09c29-.5,163.73-3,181.44-6.2,75.25-13.53,97.13-50.48,99-127.39V133.34C628.21,64.61,582,29.53,471.59,29.53H170C59.55,29.53,13.36,64.61,12.89,133.34Z"/><path class="cls-1" d="M1.89,215.12V418c0,2.34,2.54,5.4,4.77,5.78v699c1.87,78.63,23.13,122,100.39,134.14,36,5.67,157.94,8.19,185.61,8.7v.09h56.25v-.06c28.3-.37,155-2.35,185.61-8.73,76.56-16,98.55-53.94,100.43-132.57V415.93c1.38-.61,3.16-4.17,3.16-5.78V310.28c0-1.61-1.78-3.7-3.16-4.31V130C634.46,59.77,588,23.26,475.06,23.26H166.51c-113,0-159.37,41.22-159.85,111.49V207C4.43,207.39,1.89,212.79,1.89,215.12Z"/><rect class="cls-1" x="30.65" y="135.39" width="578.7" height="1013.06" rx="12" ry="12"/></svg>